<svg width="318" height="319" viewBox="0 0 318 319" fill="none" xmlns="http://www.w3.org/2000/svg">
<rect x="0.23696" y="0.980612" width="317.526" height="317.052" fill="black"/>
<rect x="0.23696" y="0.980612" width="317.526" height="317.052" stroke="white" stroke-width="0.47392"/>
<g clip-path="url(#clip0_125_17311)">
<rect x="4.26538" y="5.48242" width="308.996" height="308.996" fill="#121212"/>
<rect x="122.508" y="196.235" width="24.1699" height="118.006" fill="#121212" stroke="white" stroke-width="0.47392"/>
<rect x="146.204" y="196.235" width="24.1699" height="118.006" fill="#10230C" stroke="white" stroke-width="0.47392"/>
<rect x="169.9" y="196.235" width="24.1699" height="118.006" fill="#121212" stroke="white" stroke-width="0.47392"/>
<rect x="122.508" y="5.71958" width="24.1699" height="118.006" fill="#121212" stroke="white" stroke-width="0.47392"/>
<rect x="146.204" y="5.71958" width="24.1699" height="118.006" fill="#EAAA29" stroke="white" stroke-width="0.47392"/>
<rect x="146.204" y="5.71958" width="23.696" height="20.3785" fill="#121212" stroke="white" stroke-width="0.47392"/>
<rect x="169.9" y="5.71958" width="24.1699" height="118.006" fill="#121212" stroke="white" stroke-width="0.47392"/>
<rect x="4.02867" y="195.761" width="24.1699" height="117.532" transform="rotate(-90 4.02867 195.761)" fill="#121212" stroke="white" stroke-width="0.47392"/>
<rect x="4.02867" y="172.066" width="24.1699" height="117.532" transform="rotate(-90 4.02867 172.066)" fill="#0F2C48" stroke="white" stroke-width="0.47392"/>
<rect x="195.018" y="172.066" width="24.1699" height="117.532" transform="rotate(-90 195.018 172.066)" fill="#121212" stroke="white" stroke-width="0.47392"/>
<mask id="path-14-outside-1_125_17311" maskUnits="userSpaceOnUse" x="4.26562" y="123.132" width="118" height="26" fill="black">
<rect fill="white" x="4.26562" y="123.132" width="118" height="26"/>
<path d="M4.26562 148.132L4.26562 124.436L121.324 124.436L121.324 148.132L4.26562 148.132Z"/>
</mask>
<path d="M4.26562 148.132L4.26562 124.436L121.324 124.436L121.324 148.132L4.26562 148.132Z" fill="#121212"/>
<path d="M121.324 124.436L121.798 124.436L121.798 123.962L121.324 123.962L121.324 124.436ZM121.324 148.132L121.324 148.606L121.798 148.606L121.798 148.132L121.324 148.132ZM4.26562 124.91L121.324 124.91L121.324 123.962L4.26562 123.962L4.26562 124.91ZM120.85 124.436L120.85 148.132L121.798 148.132L121.798 124.436L120.85 124.436ZM121.324 147.658L4.26562 147.658L4.26563 148.606L121.324 148.606L121.324 147.658Z" fill="white" mask="url(#path-14-outside-1_125_17311)"/>
<rect x="194.544" y="195.761" width="24.1699" height="118.954" transform="rotate(-90 194.544 195.761)" fill="#121212" stroke="white" stroke-width="0.47392"/>
<rect x="194.544" y="172.066" width="24.1699" height="97.6274" transform="rotate(-90 194.544 172.066)" fill="#8E0E0E" stroke="white" stroke-width="0.47392"/>
<rect x="194.544" y="148.369" width="24.1699" height="118.954" transform="rotate(-90 194.544 148.369)" fill="#121212" stroke="white" stroke-width="0.47392"/>
<rect x="122.271" y="124.437" width="71.5619" height="71.0879" fill="white"/>
<rect x="22.7483" y="216.851" width="80.5663" height="75.8271" fill="#D9D9D9"/>
<rect x="212.79" y="216.851" width="80.5663" height="75.8271" fill="#D9D9D9"/>
<rect x="212.79" y="27.2827" width="80.5663" height="75.8271" fill="#D9D9D9"/>
<rect x="4.7395" y="5.95654" width="117.058" height="118.006" fill="#0F2C48"/>
<rect x="4.7395" y="195.998" width="117.058" height="118.006" fill="#10230C"/>
<rect x="194.307" y="195.998" width="118.954" height="118.006" fill="#8E0E0E"/>
<rect x="194.307" y="5.95654" width="118.954" height="118.006" fill="#EAAA29"/>
<mask id="path-27-inside-2_125_17311" fill="white">
<path d="M195.255 124.437H214.686V195.524H195.255V124.437Z"/>
</mask>
<path d="M214.212 124.437V195.524H215.16V124.437H214.212Z" fill="white" mask="url(#path-27-inside-2_125_17311)"/>
<mask id="path-29-inside-3_125_17311" fill="white">
<path d="M24.1702 124.437H43.6009V195.524H24.1702V124.437Z"/>
</mask>
<path d="M43.1269 124.437V195.524H44.0748V124.437H43.1269Z" fill="white" mask="url(#path-29-inside-3_125_17311)"/>
<path d="M24.1702 124.437H43.1269V148.132H24.1702V124.437Z" fill="#0F2C48"/>
<mask id="path-32-inside-4_125_17311" fill="white">
<path d="M214.686 124.437H234.116V195.524H214.686V124.437Z"/>
</mask>
<path d="M233.643 124.437V195.524H234.59V124.437H233.643Z" fill="white" mask="url(#path-32-inside-4_125_17311)"/>
<mask id="path-34-inside-5_125_17311" fill="white">
<path d="M43.6008 124.437H63.0315V195.524H43.6008V124.437Z"/>
</mask>
<path d="M62.5576 124.437V195.524H63.5054V124.437H62.5576Z" fill="white" mask="url(#path-34-inside-5_125_17311)"/>
<mask id="path-36-inside-6_125_17311" fill="white">
<path d="M234.116 124.437H253.547V195.524H234.116V124.437Z"/>
</mask>
<path d="M253.073 124.437V195.524H254.021V124.437H253.073Z" fill="white" mask="url(#path-36-inside-6_125_17311)"/>
<mask id="path-38-inside-7_125_17311" fill="white">
<path d="M63.0315 124.437H82.4622V195.524H63.0315V124.437Z"/>
</mask>
<path d="M81.9883 124.437V195.524H82.9361V124.437H81.9883Z" fill="white" mask="url(#path-38-inside-7_125_17311)"/>
<mask id="path-40-inside-8_125_17311" fill="white">
<path d="M253.547 124.437H272.978V195.524H253.547V124.437Z"/>
</mask>
<path d="M272.504 124.437V195.524H273.452V124.437H272.504Z" fill="white" mask="url(#path-40-inside-8_125_17311)"/>
<mask id="path-42-inside-9_125_17311" fill="white">
<path d="M82.4622 124.437H101.893V195.524H82.4622V124.437Z"/>
</mask>
<path d="M101.419 124.437V195.524H102.367V124.437H101.419Z" fill="white" mask="url(#path-42-inside-9_125_17311)"/>
<g clip-path="url(#clip1_125_17311)">
<mask id="path-44-inside-10_125_17311" fill="white">
<path d="M272.978 124.437H292.408V195.524H272.978V124.437Z"/>
</mask>
<path d="M272.978 172.302H291.935V195.524H272.978V172.302Z" fill="#8E0E0E"/>
</g>
<path d="M291.935 124.437V195.524H292.882V124.437H291.935Z" fill="white" mask="url(#path-44-inside-10_125_17311)"/>
<rect x="146.204" y="314.241" width="24.1699" height="118.006" transform="rotate(180 146.204 314.241)" fill="#121212" stroke="white" stroke-width="0.47392"/>
<rect x="146.204" y="123.726" width="24.1699" height="118.006" transform="rotate(180 146.204 123.726)" fill="#121212" stroke="white" stroke-width="0.47392"/>
<g clip-path="url(#clip2_125_17311)">
<mask id="path-49-outside-11_125_17311" maskUnits="userSpaceOnUse" x="122.271" y="293.478" width="72" height="21" fill="black">
<rect fill="white" x="122.271" y="293.478" width="72" height="21"/>
<path d="M122.271 314.478L122.271 294.099L193.833 294.099L193.833 314.478L122.271 314.478Z"/>
</mask>
<rect x="146.441" y="294.1" width="23.2221" height="19.9046" fill="#121212"/>
</g>
<path d="M122.271 294.573L193.833 294.573L193.833 293.626L122.271 293.626L122.271 294.573Z" fill="white" mask="url(#path-49-outside-11_125_17311)"/>
<mask id="path-52-inside-12_125_17311" fill="white">
<path d="M122.271 123.015L122.271 103.584L193.833 103.584L193.833 123.015L122.271 123.015Z"/>
</mask>
<path d="M122.271 104.058L193.833 104.058L193.833 103.11L122.271 103.11L122.271 104.058Z" fill="white" mask="url(#path-52-inside-12_125_17311)"/>
<mask id="path-54-inside-13_125_17311" fill="white">
<path d="M122.271 294.1L122.271 274.669L193.833 274.669L193.833 294.1L122.271 294.1Z"/>
</mask>
<path d="M122.271 275.143L193.833 275.143L193.833 274.195L122.271 274.195L122.271 275.143Z" fill="white" mask="url(#path-54-inside-13_125_17311)"/>
<mask id="path-56-inside-14_125_17311" fill="white">
<path d="M122.271 103.584L122.271 84.1533L193.833 84.1533L193.833 103.584L122.271 103.584Z"/>
</mask>
<path d="M122.271 84.6272L193.833 84.6272L193.833 83.6794L122.271 83.6794L122.271 84.6272Z" fill="white" mask="url(#path-56-inside-14_125_17311)"/>
<mask id="path-58-inside-15_125_17311" fill="white">
<path d="M122.271 274.669L122.271 255.238L193.833 255.238L193.833 274.669L122.271 274.669Z"/>
</mask>
<path d="M122.271 255.712L193.833 255.712L193.833 254.764L122.271 254.764L122.271 255.712Z" fill="white" mask="url(#path-58-inside-15_125_17311)"/>
<mask id="path-60-inside-16_125_17311" fill="white">
<path d="M122.271 84.1533L122.271 64.7226L193.833 64.7226L193.833 84.1533L122.271 84.1533Z"/>
</mask>
<path d="M122.271 65.1965L193.833 65.1965L193.833 64.2487L122.271 64.2487L122.271 65.1965Z" fill="white" mask="url(#path-60-inside-16_125_17311)"/>
<mask id="path-62-inside-17_125_17311" fill="white">
<path d="M122.271 255.238L122.271 235.808L193.833 235.808L193.833 255.238L122.271 255.238Z"/>
</mask>
<path d="M122.271 236.282L193.833 236.282L193.833 235.334L122.271 235.334L122.271 236.282Z" fill="white" mask="url(#path-62-inside-17_125_17311)"/>
<mask id="path-64-inside-18_125_17311" fill="white">
<path d="M122.271 64.7227L122.271 45.292L193.833 45.292L193.833 64.7227L122.271 64.7227Z"/>
</mask>
<path d="M122.271 45.7659L193.833 45.7659L193.833 44.818L122.271 44.818L122.271 45.7659Z" fill="white" mask="url(#path-64-inside-18_125_17311)"/>
<mask id="path-66-inside-19_125_17311" fill="white">
<path d="M122.271 235.808L122.271 216.377L193.833 216.377L193.833 235.808L122.271 235.808Z"/>
</mask>
<path d="M122.271 216.851L193.833 216.851L193.833 215.903L122.271 215.903L122.271 216.851Z" fill="white" mask="url(#path-66-inside-19_125_17311)"/>
<g clip-path="url(#clip3_125_17311)">
<mask id="path-68-inside-20_125_17311" fill="white">
<path d="M122.271 45.292L122.271 25.8613L193.833 25.8613L193.833 45.292L122.271 45.292Z"/>
</mask>
<path d="M170.137 26.335H193.833V45.2917H170.137V26.335Z" fill="#EAAA29"/>
</g>
<path d="M122.271 26.3352L193.833 26.3352L193.833 25.3874L122.271 25.3874L122.271 26.3352Z" fill="white" mask="url(#path-68-inside-20_125_17311)"/>
<g clip-path="url(#clip4_125_17311)">
<mask id="path-71-inside-21_125_17311" fill="white">
<path d="M4.7395 124.437H24.1702V195.524H4.7395V124.437Z"/>
</mask>
<rect width="18.9568" height="23.2221" transform="translate(4.7395 148.606)" fill="#121212"/>
</g>
<path d="M23.6963 124.437V195.524H24.6441V124.437H23.6963Z" fill="white" mask="url(#path-71-inside-21_125_17311)"/>
<rect x="22.6298" y="27.1642" width="80.8033" height="76.0641" fill="#ACD3F9" stroke="black" stroke-width="0.23696"/>
<rect x="212.672" y="27.1642" width="80.8033" height="76.0641" fill="#F8DEA9" stroke="black" stroke-width="0.23696"/>
<rect x="212.672" y="216.732" width="80.8033" height="76.0641" fill="#FDB2B2" stroke="black" stroke-width="0.23696"/>
<rect x="22.6298" y="217.206" width="80.8033" height="76.0641" fill="#E9DF4C" stroke="black" stroke-width="0.23696"/>
<path d="M122.846 195.287L158.052 160.314L193.259 195.287H122.846Z" fill="#10230C" stroke="black" stroke-width="0.47392"/>
<path d="M122.509 125.006L157.716 159.981L122.509 194.955L122.509 125.006Z" fill="#0F2C48" stroke="black" stroke-width="0.47392"/>
<path d="M193.596 194.955L158.389 159.98L193.596 125.006L193.596 194.955Z" fill="#8E0E0E" stroke="black" stroke-width="0.47392"/>
<path d="M122.846 124.673L158.052 159.646L193.259 124.673H122.846Z" fill="#EAAA29" stroke="black" stroke-width="0.47392"/>
<path d="M175.35 159.98C175.35 169.141 164.687 165.667 158.763 176.567C149.602 176.567 149.048 165.43 142.176 159.98C142.176 150.819 152.602 152.161 158.763 143.393C167.924 143.393 166.346 154.53 175.35 159.98Z" fill="white"/>
<path d="M117.57 190.432C117.374 190.411 117.2 190.553 117.179 190.748L116.843 193.929C116.823 194.124 116.964 194.299 117.16 194.32C117.355 194.34 117.53 194.199 117.55 194.004L117.849 191.176L120.676 191.474C120.872 191.495 121.047 191.353 121.067 191.158C121.088 190.963 120.946 190.788 120.751 190.767L117.57 190.432ZM126.662 201.503L117.809 190.562L117.256 191.009L126.109 201.95L126.662 201.503Z" fill="white"/>
<path d="M198.971 129.078C199.167 129.078 199.327 128.919 199.327 128.722L199.327 125.523C199.327 125.327 199.167 125.168 198.971 125.168C198.775 125.168 198.616 125.327 198.616 125.523L198.616 128.367L195.772 128.367C195.576 128.367 195.417 128.526 195.417 128.722C195.417 128.919 195.576 129.078 195.772 129.078L198.971 129.078ZM188.767 119.021L198.72 128.974L199.222 128.471L189.27 118.519L188.767 119.021Z" fill="white"/>
<path d="M127.364 119.733C127.384 119.538 127.241 119.363 127.046 119.344L123.863 119.023C123.668 119.003 123.493 119.146 123.474 119.341C123.454 119.536 123.596 119.711 123.792 119.73L126.621 120.015L126.336 122.844C126.316 123.04 126.459 123.214 126.654 123.234C126.849 123.253 127.024 123.111 127.043 122.916L127.364 119.733ZM116.335 128.877L127.235 119.973L126.785 119.422L115.886 128.327L116.335 128.877Z" fill="white"/>
<path d="M133.897 241.243C133.758 241.104 133.533 241.104 133.394 241.243L131.132 243.505C130.993 243.644 130.993 243.869 131.132 244.008C131.271 244.147 131.496 244.147 131.635 244.008L133.646 241.997L135.656 244.008C135.795 244.147 136.02 244.147 136.159 244.008C136.298 243.869 136.298 243.644 136.159 243.505L133.897 241.243ZM134.001 271.352L134.001 241.495L133.29 241.495L133.29 271.352L134.001 271.352Z" fill="white"/>
<path d="M133.897 49.3058C133.758 49.167 133.533 49.167 133.394 49.3058L131.132 51.5678C130.993 51.7066 130.993 51.9317 131.132 52.0705C131.271 52.2093 131.496 52.2093 131.635 52.0705L133.646 50.0598L135.656 52.0705C135.795 52.2093 136.02 52.2093 136.159 52.0705C136.298 51.9317 136.298 51.7066 136.159 51.5678L133.897 49.3058ZM134.001 79.4141L134.001 49.5571L133.29 49.5571L133.29 79.4141L134.001 79.4141Z" fill="white"/>
<path d="M182.237 271.603C182.098 271.742 181.873 271.742 181.734 271.603L179.472 269.341C179.333 269.202 179.333 268.977 179.472 268.838C179.611 268.699 179.836 268.699 179.975 268.838L181.985 270.849L183.996 268.838C184.135 268.699 184.36 268.699 184.499 268.838C184.637 268.977 184.637 269.202 184.499 269.341L182.237 271.603ZM182.341 241.495L182.341 271.352L181.63 271.352L181.63 241.495L182.341 241.495Z" fill="white"/>
<path d="M182.237 79.6654C182.098 79.8042 181.873 79.8042 181.734 79.6654L179.472 77.4034C179.333 77.2646 179.333 77.0395 179.472 76.9007C179.611 76.7619 179.836 76.7619 179.975 76.9007L181.985 78.9114L183.996 76.9007C184.135 76.7619 184.36 76.7619 184.499 76.9007C184.637 77.0395 184.637 77.2646 184.499 77.4034L182.237 79.6654ZM182.341 49.5571L182.341 79.4141L181.63 79.4141L181.63 49.5571L182.341 49.5571Z" fill="white"/>
<path d="M238.131 182.477C237.992 182.616 237.992 182.841 238.131 182.98L240.393 185.242C240.531 185.381 240.756 185.381 240.895 185.242C241.034 185.103 241.034 184.878 240.895 184.739L238.885 182.729L240.895 180.718C241.034 180.579 241.034 180.354 240.895 180.215C240.756 180.076 240.531 180.076 240.393 180.215L238.131 182.477ZM268.239 182.373L238.382 182.373L238.382 183.084L268.239 183.084L268.239 182.373Z" fill="white"/>
<path d="M268.49 136.536C268.629 136.397 268.629 136.172 268.49 136.033L266.228 133.771C266.089 133.633 265.864 133.633 265.725 133.771C265.587 133.91 265.587 134.135 265.725 134.274L267.736 136.285L265.725 138.295C265.587 138.434 265.587 138.659 265.725 138.798C265.864 138.937 266.089 138.937 266.228 138.798L268.49 136.536ZM238.382 136.64L268.239 136.64L268.239 135.929L238.382 135.929L238.382 136.64Z" fill="white"/>
<path d="M122.271 275.143H145.967V293.626H122.271V275.143Z" fill="#10230C"/>
<path d="M189.298 200.353C189.301 200.549 189.463 200.706 189.659 200.702L192.858 200.648C193.054 200.645 193.21 200.483 193.207 200.287C193.204 200.091 193.042 199.934 192.846 199.937L190.003 199.986L189.954 197.143C189.951 196.946 189.789 196.79 189.593 196.793C189.397 196.796 189.24 196.958 189.244 197.155L189.298 200.353ZM199.18 189.98L189.398 200.1L189.909 200.594L199.691 190.475L199.18 189.98Z" fill="white"/>
<circle cx="47.1553" cy="50.2678" r="9.24143" fill="#0F2C48"/>
<circle cx="76.5383" cy="50.2678" r="9.24143" fill="#0F2C48"/>
<circle cx="47.1553" cy="92.7507" r="9.24143" fill="#0F2C48"/>
<circle cx="76.5383" cy="92.7507" r="9.24143" fill="#0F2C48"/>
<circle cx="238.619" cy="50.2678" r="9.24143" fill="#EAAA29"/>
<circle cx="268.002" cy="50.2678" r="9.24143" fill="#EAAA29"/>
<circle cx="238.619" cy="92.7507" r="9.24143" fill="#EAAA29"/>
<circle cx="268.002" cy="92.7507" r="9.24143" fill="#EAAA29"/>
<circle cx="238.619" cy="240.31" r="9.24143" fill="#8E0E0E"/>
<circle cx="268.002" cy="240.31" r="9.24143" fill="#8E0E0E"/>
<circle cx="238.619" cy="282.793" r="9.24143" fill="#8E0E0E"/>
<circle cx="268.002" cy="282.793" r="9.24143" fill="#8E0E0E"/>
<circle cx="48.103" cy="240.31" r="9.24143" fill="#10230C"/>
<circle cx="77.4861" cy="240.31" r="9.24143" fill="#10230C"/>
<circle cx="48.103" cy="282.793" r="9.24143" fill="#10230C"/>
<circle cx="77.4861" cy="282.793" r="9.24143" fill="#10230C"/>
<path d="M295.252 160.928L295.252 161.284L295.252 160.928ZM283.641 160.677C283.502 160.816 283.502 161.041 283.641 161.18L285.903 163.442C286.042 163.581 286.267 163.581 286.405 163.442C286.544 163.303 286.544 163.078 286.405 162.939L284.395 160.928L286.405 158.918C286.544 158.779 286.544 158.554 286.405 158.415C286.267 158.276 286.042 158.276 285.903 158.415L283.641 160.677ZM306.626 149.554L306.982 149.554L306.626 149.554ZM282.456 136.64L293.356 136.64L293.356 135.929L282.456 135.929L282.456 136.64ZM295.252 160.573L283.892 160.573L283.892 161.284L295.252 161.284L295.252 160.573ZM306.271 149.554C306.271 155.64 301.338 160.573 295.252 160.573L295.252 161.284C301.73 161.284 306.982 156.032 306.982 149.554L306.271 149.554ZM293.356 136.64C300.489 136.64 306.271 142.422 306.271 149.554L306.982 149.554C306.982 142.029 300.881 135.929 293.356 135.929L293.356 136.64Z" fill="white"/>
<path d="M157.342 297.417L156.986 297.417L157.342 297.417ZM157.593 285.806C157.454 285.667 157.229 285.667 157.09 285.806L154.828 288.068C154.689 288.206 154.689 288.431 154.828 288.57C154.967 288.709 155.192 288.709 155.331 288.57L157.342 286.56L159.352 288.57C159.491 288.709 159.716 288.709 159.855 288.57C159.994 288.431 159.994 288.206 159.855 288.068L157.593 285.806ZM168.716 308.791L168.716 309.146L168.716 308.791ZM181.63 284.621L181.63 295.521L182.341 295.521L182.341 284.621L181.63 284.621ZM157.697 297.417L157.697 286.057L156.986 286.057L156.986 297.417L157.697 297.417ZM168.716 308.436C162.63 308.436 157.697 303.502 157.697 297.417L156.986 297.417C156.986 303.895 162.238 309.146 168.716 309.146L168.716 308.436ZM181.63 295.521C181.63 302.654 175.848 308.436 168.716 308.436L168.716 309.146C176.241 309.146 182.341 303.046 182.341 295.521L181.63 295.521Z" fill="white"/>
<path d="M159.291 23.0174L159.646 23.0157L159.291 23.0174ZM159.095 34.6298C159.234 34.768 159.459 34.7669 159.597 34.6274L161.849 32.3547C161.987 32.2152 161.986 31.9902 161.846 31.852C161.707 31.7139 161.482 31.715 161.344 31.8544L159.343 33.8746L157.322 31.8735C157.183 31.7354 156.958 31.7365 156.82 31.8759C156.682 32.0154 156.683 32.2404 156.822 32.3786L159.095 34.6298ZM147.863 11.6975L147.861 11.3421L147.863 11.6975ZM135.064 35.9285L135.012 25.0285L134.301 25.0318L134.353 35.9319L135.064 35.9285ZM158.936 23.0191L158.99 34.379L159.7 34.3756L159.646 23.0157L158.936 23.0191ZM147.865 12.053C153.95 12.024 158.907 16.9338 158.936 23.0191L159.646 23.0157C159.616 16.5378 154.339 11.3113 147.861 11.3421L147.865 12.053ZM135.012 25.0285C134.978 17.8962 140.732 12.0868 147.865 12.053L147.861 11.3421C140.336 11.3778 134.265 17.5069 134.301 25.0318L135.012 25.0285Z" fill="white"/>
<path d="M20.851 158.304L20.8449 157.949L20.851 158.304ZM32.4649 158.356C32.6013 158.215 32.5975 157.99 32.4563 157.853L30.1558 155.631C30.0146 155.494 29.7896 155.498 29.6532 155.639C29.5168 155.78 29.5207 156.005 29.6618 156.142L31.7067 158.118L29.7308 160.163C29.5944 160.304 29.5983 160.529 29.7395 160.665C29.8806 160.802 30.1057 160.798 30.2421 160.657L32.4649 158.356ZM9.67379 169.872L9.31841 169.878L9.67379 169.872ZM34.0618 182.369L23.1632 182.556L23.1754 183.267L34.074 183.08L34.0618 182.369ZM20.8571 158.659L32.2154 158.464L32.2032 157.754L20.8449 157.949L20.8571 158.659ZM10.0292 169.866C9.92474 163.781 14.7726 158.764 20.8571 158.659L20.8449 157.949C14.3678 158.06 9.20723 163.401 9.31841 169.878L10.0292 169.866ZM23.1632 182.556C16.0319 182.679 10.1516 176.997 10.0292 169.866L9.31841 169.878C9.44755 177.402 15.6515 183.396 23.1754 183.267L23.1632 182.556Z" fill="white"/>
</g>
<rect x="4.50234" y="5.71938" width="308.522" height="308.522" stroke="white" stroke-width="0.47392"/>
<path d="M48.0885 182.477C47.9497 182.616 47.9497 182.841 48.0885 182.98L50.3505 185.242C50.4893 185.381 50.7144 185.381 50.8532 185.242C50.992 185.103 50.992 184.878 50.8532 184.739L48.8425 182.729L50.8532 180.718C50.992 180.579 50.992 180.354 50.8532 180.215C50.7144 180.076 50.4893 180.076 50.3505 180.215L48.0885 182.477ZM78.1968 182.373L48.3398 182.373L48.3398 183.084L78.1968 183.084L78.1968 182.373Z" fill="white"/>
<path d="M78.4481 136.536C78.5869 136.397 78.5869 136.172 78.4481 136.033L76.1861 133.771C76.0473 133.633 75.8222 133.633 75.6834 133.771C75.5446 133.91 75.5446 134.135 75.6834 134.274L77.6941 136.285L75.6834 138.295C75.5446 138.434 75.5446 138.659 75.6834 138.798C75.8222 138.937 76.0473 138.937 76.1861 138.798L78.4481 136.536ZM48.3398 136.64L78.1968 136.64L78.1968 135.929L48.3398 135.929L48.3398 136.64Z" fill="white"/>
<defs>
<clipPath id="clip0_125_17311">
<rect x="4.26538" y="5.48242" width="308.996" height="308.996" fill="white"/>
</clipPath>
<clipPath id="clip1_125_17311">
<path d="M272.978 124.437H292.408V195.524H272.978V124.437Z" fill="white"/>
</clipPath>
<clipPath id="clip2_125_17311">
<path d="M122.271 314.478L122.271 294.099L193.833 294.099L193.833 314.478L122.271 314.478Z" fill="white"/>
</clipPath>
<clipPath id="clip3_125_17311">
<path d="M122.271 45.292L122.271 25.8613L193.833 25.8613L193.833 45.292L122.271 45.292Z" fill="white"/>
</clipPath>
<clipPath id="clip4_125_17311">
<path d="M4.7395 124.437H24.1702V195.524H4.7395V124.437Z" fill="white"/>
</clipPath>
</defs>
</svg>
