<svg width="42" height="62" viewBox="0 0 42 62" fill="none" xmlns="http://www.w3.org/2000/svg">
<path d="M0.999999 15.325C1 15.0598 1.10536 14.8054 1.29289 14.6179L14.1179 1.79289C14.3054 1.60536 14.5598 1.5 14.825 1.5L26.225 1.5C26.4902 1.5 26.7446 1.60536 26.9321 1.79289L39.7571 14.6179C39.9446 14.8054 40.05 15.0598 40.05 15.325L40.05 46.675C40.05 46.9402 39.9446 47.1946 39.7571 47.3821L26.9321 60.2071C26.7446 60.3946 26.4902 60.5 26.225 60.5L14.825 60.5C14.5598 60.5 14.3054 60.3946 14.1179 60.2071L1.29289 47.3821C1.10535 47.1946 0.999998 46.9402 0.999998 46.675L0.999999 15.325Z" fill="#E96565" stroke="#60050F" stroke-width="2" stroke-linejoin="round"/>
<path d="M2 46.6749L2 15.325L12.6875 18.8875L12.6875 43.1125L2 46.6749Z" fill="#EE8BBB"/>
<path d="M14.825 2.5L2 15.325L12.6875 18.8875L20.525 9.625L26.225 2.5L14.825 2.5Z" fill="#FFC1DF"/>
<path d="M28.3627 43.1125L20.5252 52.375L14.8252 59.5L26.2252 59.5L39.0502 46.675L39.0502 15.325L26.2252 2.5L20.5252 9.625L28.3627 18.8875L28.3627 43.1125Z" fill="#D74E67"/>
<path d="M39.0498 15.325L39.0498 46.675L28.3623 43.1125L28.3623 18.8875L39.0498 15.325Z" fill="#AC2F6B"/>
<circle cx="36.1999" cy="22.4503" r="1.425" fill="#BE3778"/>
<circle cx="34.4188" cy="28.5065" r="1.06875" fill="#BE3778"/>
<circle cx="36.9127" cy="26.7252" r="0.7125" fill="#BE3778"/>
<circle cx="33.3502" cy="24.5877" r="0.7125" fill="#BE3778"/>
<circle cx="36.9127" cy="18.1753" r="0.7125" fill="#BE3778"/>
<circle cx="36.9127" cy="35.2752" r="0.7125" fill="#BE3778"/>
<circle cx="36.9127" cy="31.7127" r="0.7125" fill="#BE3778"/>
<path d="M12.6875 18.8875L12.6875 43.1125L20.525 52.375L28.3625 43.1459L28.3625 18.8875L20.525 9.625L12.6875 18.8875Z" fill="#FF6480"/>
<path d="M12.6875 43.1125L12.6875 18.8875L20.525 9.625L28.3625 18.8875L12.6875 43.1125Z" fill="#FF9BAD"/>
<path d="M20.5248 11.7625L14.1123 19.6V34.5625" stroke="#FFD5E4" stroke-width="2" stroke-linecap="round" stroke-linejoin="round"/>
<path d="M3.4248 17.4625V44.5375" stroke="#FFADD4" stroke-width="2" stroke-linecap="round" stroke-linejoin="round"/>
<path d="M4.8501 14.6125L15.5376 3.92505" stroke="#FFE7F2" stroke-width="2" stroke-linecap="round" stroke-linejoin="round"/>
<circle cx="33.7064" cy="48.4564" r="1.06875" fill="#B43B51"/>
<circle cx="26.5814" cy="55.5814" r="1.06875" fill="#B43B51"/>
<circle cx="29.4311" cy="52.7315" r="1.06875" fill="#B43B51"/>
<circle cx="26.2252" cy="50.9503" r="0.7125" fill="#B43B51"/>
<circle cx="31.2125" cy="50.9503" r="0.7125" fill="#B43B51"/>
<circle cx="29.0749" cy="48.1003" r="1.425" fill="#B43B51"/>
</svg>
