<svg width="42" height="62" viewBox="0 0 42 62" fill="none" xmlns="http://www.w3.org/2000/svg">
<path d="M1.2998 15.325C1.2998 15.0598 1.40516 14.8054 1.5927 14.6179L14.4177 1.79289C14.6052 1.60536 14.8596 1.5 15.1248 1.5L26.5248 1.5C26.79 1.5 27.0444 1.60536 27.2319 1.79289L40.0569 14.6179C40.2444 14.8054 40.3498 15.0598 40.3498 15.325L40.3498 46.675C40.3498 46.9402 40.2444 47.1946 40.0569 47.3821L27.2319 60.2071C27.0444 60.3946 26.79 60.5 26.5248 60.5L15.1248 60.5C14.8596 60.5 14.6052 60.3946 14.4177 60.2071L1.5927 47.3821C1.40516 47.1946 1.2998 46.9402 1.2998 46.675L1.2998 15.325Z" fill="#E9B465" stroke="#604105" stroke-width="2" stroke-linejoin="round"/>
<path d="M2.2998 46.6749L2.2998 15.325L12.9873 18.8875L12.9873 43.1125L2.2998 46.6749Z" fill="#EEC18B"/>
<path d="M15.1248 2.5L2.2998 15.325L12.9873 18.8875L20.8248 9.625L26.5248 2.5L15.1248 2.5Z" fill="#FFEEC1"/>
<path d="M28.6625 43.1125L20.825 52.375L15.125 59.5L26.525 59.5L39.35 46.675L39.35 15.325L26.525 2.5L20.825 9.625L28.6625 18.8875L28.6625 43.1125Z" fill="#E39130"/>
<path d="M39.3496 15.325L39.3496 46.675L28.6621 43.1125L28.6621 18.8875L39.3496 15.325Z" fill="#CA693F"/>
<circle cx="36.4997" cy="22.4503" r="1.425" fill="#DE7A50"/>
<circle cx="34.7187" cy="28.5065" r="1.06875" fill="#DE7A50"/>
<circle cx="37.2125" cy="26.7252" r="0.7125" fill="#DE7A50"/>
<circle cx="33.65" cy="24.5877" r="0.7125" fill="#DE7A50"/>
<circle cx="37.2125" cy="18.1753" r="0.7125" fill="#DE7A50"/>
<circle cx="37.2125" cy="35.2752" r="0.7125" fill="#DE7A50"/>
<circle cx="37.2125" cy="31.7127" r="0.7125" fill="#DE7A50"/>
<path d="M12.9873 18.8875L12.9873 43.1125L20.8248 52.375L28.6623 43.1459L28.6623 18.8875L20.8248 9.625L12.9873 18.8875Z" fill="#FFB547"/>
<path d="M12.9873 43.1125L12.9873 18.8875L20.8248 9.625L28.6623 18.8875L12.9873 43.1125Z" fill="#FFCB7C"/>
<path d="M20.8246 11.7625L14.4121 19.6V34.5625" stroke="#FFEAC2" stroke-width="2" stroke-linecap="round" stroke-linejoin="round"/>
<path d="M3.72461 17.4625V44.5375" stroke="#FFD5A3" stroke-width="2" stroke-linecap="round" stroke-linejoin="round"/>
<path d="M5.1499 14.6125L15.8374 3.92505" stroke="#FFFEFD" stroke-width="2" stroke-linecap="round" stroke-linejoin="round"/>
<circle cx="34.0062" cy="48.4564" r="1.06875" fill="#CA8028"/>
<circle cx="26.8813" cy="55.5814" r="1.06875" fill="#CA8028"/>
<circle cx="29.7309" cy="52.7315" r="1.06875" fill="#CA8028"/>
<circle cx="26.525" cy="50.9503" r="0.7125" fill="#CA8028"/>
<circle cx="31.5123" cy="50.9503" r="0.7125" fill="#CA8028"/>
<circle cx="29.3747" cy="48.1003" r="1.425" fill="#CA8028"/>
</svg>
