<svg width="42" height="62" viewBox="0 0 42 62" fill="none" xmlns="http://www.w3.org/2000/svg">
<path d="M1.6499 15.325C1.6499 15.0598 1.75526 14.8054 1.9428 14.6179L14.7678 1.79289C14.9553 1.60536 15.2097 1.5 15.4749 1.5L26.8749 1.5C27.1401 1.5 27.3945 1.60536 27.582 1.79289L40.407 14.6179C40.5945 14.8054 40.6999 15.0598 40.6999 15.325L40.6999 46.675C40.6999 46.9402 40.5945 47.1946 40.407 47.3821L27.582 60.2071C27.3945 60.3946 27.1401 60.5 26.8749 60.5L15.4749 60.5C15.2097 60.5 14.9553 60.3946 14.7678 60.2071L1.94279 47.3821C1.75526 47.1946 1.6499 46.9402 1.6499 46.675L1.6499 15.325Z" fill="#E3E73C" stroke="#384B00" stroke-width="2" stroke-linejoin="round"/>
<path d="M2.6499 46.6749L2.6499 15.325L13.3374 18.8875L13.3374 43.1125L2.6499 46.6749Z" fill="#DAEE8B"/>
<path d="M15.4749 2.5L2.6499 15.325L13.3374 18.8875L21.1749 9.625L26.8749 2.5L15.4749 2.5Z" fill="#FFF9C1"/>
<path d="M29.0126 43.1125L21.1751 52.375L15.4751 59.5L26.8751 59.5L39.7001 46.675L39.7001 15.325L26.8751 2.5L21.1751 9.625L29.0126 18.8875L29.0126 43.1125Z" fill="#AFD02B"/>
<path d="M39.6997 15.325L39.6997 46.675L29.0122 43.1125L29.0122 18.8875L39.6997 15.325Z" fill="#63C038"/>
<circle cx="36.8498" cy="22.4503" r="1.425" fill="#73D346"/>
<circle cx="35.0687" cy="28.5065" r="1.06875" fill="#73D346"/>
<circle cx="37.5626" cy="26.7252" r="0.7125" fill="#73D346"/>
<circle cx="34.0001" cy="24.5877" r="0.7125" fill="#73D346"/>
<circle cx="37.5626" cy="18.1753" r="0.7125" fill="#73D346"/>
<circle cx="37.5626" cy="35.2752" r="0.7125" fill="#73D346"/>
<circle cx="37.5626" cy="31.7127" r="0.7125" fill="#73D346"/>
<path d="M13.3374 18.8875L13.3374 43.1125L21.1749 52.375L29.0124 43.1459L29.0124 18.8875L21.1749 9.625L13.3374 18.8875Z" fill="#D1FA2D"/>
<path d="M13.3374 43.1125L13.3374 18.8875L21.1749 9.625L29.0124 18.8875L13.3374 43.1125Z" fill="#E4FF76"/>
<path d="M21.1747 11.7625L14.7622 19.6V34.5625" stroke="#F5FFCE" stroke-width="2" stroke-linecap="round" stroke-linejoin="round"/>
<path d="M4.07471 17.4625V44.5375" stroke="#DFF8AA" stroke-width="2" stroke-linecap="round" stroke-linejoin="round"/>
<path d="M5.5 14.6125L16.1875 3.92505" stroke="#FDFFE2" stroke-width="2" stroke-linecap="round" stroke-linejoin="round"/>
<circle cx="34.3563" cy="48.4564" r="1.06875" fill="#99BC0D"/>
<circle cx="27.2313" cy="55.5814" r="1.06875" fill="#99BC0D"/>
<circle cx="30.081" cy="52.7315" r="1.06875" fill="#99BC0D"/>
<circle cx="26.8751" cy="50.9503" r="0.7125" fill="#99BC0D"/>
<circle cx="31.8624" cy="50.9503" r="0.7125" fill="#99BC0D"/>
<circle cx="29.7248" cy="48.1003" r="1.425" fill="#99BC0D"/>
</svg>
