<svg width="42" height="62" viewBox="0 0 42 62" fill="none" xmlns="http://www.w3.org/2000/svg">
<path d="M1.95019 15.325C1.95019 15.0598 2.05555 14.8054 2.24309 14.6179L15.0681 1.79289C15.2556 1.60536 15.51 1.5 15.7752 1.5L27.1752 1.5C27.4404 1.5 27.6948 1.60536 27.8823 1.79289L40.7073 14.6179C40.8948 14.8054 41.0002 15.0598 41.0002 15.325L41.0002 46.675C41.0002 46.9402 40.8948 47.1946 40.7073 47.3821L27.8823 60.2071C27.6948 60.3946 27.4404 60.5 27.1752 60.5L15.7752 60.5C15.51 60.5 15.2556 60.3946 15.0681 60.2071L2.24309 47.3821C2.05555 47.1946 1.95019 46.9402 1.95019 46.675L1.95019 15.325Z" fill="#32B6E0" stroke="#052360" stroke-width="2" stroke-linejoin="round"/>
<path d="M2.95019 46.6749L2.9502 15.325L13.6377 18.8875L13.6377 43.1125L2.95019 46.6749Z" fill="#62C6FF"/>
<path d="M15.7752 2.5L2.95019 15.325L13.6377 18.8875L21.4752 9.625L27.1752 2.5L15.7752 2.5Z" fill="#C1E9FF"/>
<path d="M29.3129 43.1125L21.4754 52.375L15.7754 59.5L27.1754 59.5L40.0004 46.675L40.0004 15.325L27.1754 2.5L21.4754 9.625L29.3129 18.8875L29.3129 43.1125Z" fill="#2D88F3"/>
<path d="M40 15.325L40 46.675L29.3125 43.1125L29.3125 18.8875L40 15.325Z" fill="#4E5CDE"/>
<circle cx="37.1501" cy="22.4503" r="1.425" fill="#6473FC"/>
<circle cx="35.369" cy="28.5065" r="1.06875" fill="#6473FC"/>
<circle cx="37.8629" cy="26.7252" r="0.7125" fill="#6473FC"/>
<circle cx="34.3004" cy="24.5877" r="0.7125" fill="#6473FC"/>
<circle cx="37.8629" cy="18.1753" r="0.7125" fill="#6473FC"/>
<circle cx="37.8629" cy="35.2752" r="0.7125" fill="#6473FC"/>
<circle cx="37.8629" cy="31.7127" r="0.7125" fill="#6473FC"/>
<path d="M13.6377 18.8875L13.6377 43.1125L21.4752 52.375L29.3127 43.1459L29.3127 18.8875L21.4752 9.625L13.6377 18.8875Z" fill="#38ACFF"/>
<path d="M13.6377 43.1125L13.6377 18.8875L21.4752 9.625L29.3127 18.8875L13.6377 43.1125Z" fill="#83CBFF"/>
<path d="M21.475 11.7625L15.0625 19.6V34.5625" stroke="#C2E6FF" stroke-width="2" stroke-linecap="round" stroke-linejoin="round"/>
<path d="M4.375 17.4625V44.5375" stroke="#9BDBFF" stroke-width="2" stroke-linecap="round" stroke-linejoin="round"/>
<path d="M5.80029 14.6125L16.4878 3.92505" stroke="#E2FBFF" stroke-width="2" stroke-linecap="round" stroke-linejoin="round"/>
<circle cx="34.6566" cy="48.4564" r="1.06875" fill="#1B73DA"/>
<circle cx="27.5316" cy="55.5814" r="1.06875" fill="#1B73DA"/>
<circle cx="30.3813" cy="52.7315" r="1.06875" fill="#1B73DA"/>
<circle cx="27.1754" cy="50.9503" r="0.7125" fill="#1B73DA"/>
<circle cx="32.1627" cy="50.9503" r="0.7125" fill="#1B73DA"/>
<circle cx="30.0251" cy="48.1003" r="1.425" fill="#1B73DA"/>
</svg>
