<svg width="23" height="32" viewBox="0 0 23 32" fill="none" xmlns="http://www.w3.org/2000/svg">
<g clip-path="url(#clip0_125_19903)">
<path d="M7.85965 0H1.12281C0.502698 0 0 0.502698 0 1.12281V30.3158C0 30.9359 0.502698 31.4386 1.12281 31.4386H7.85965C8.47976 31.4386 8.98246 30.9359 8.98246 30.3158V1.12281C8.98246 0.502698 8.47976 0 7.85965 0Z" fill="#854D15"/>
<path d="M21.3333 0H14.5964C13.9763 0 13.4736 0.502698 13.4736 1.12281V30.3158C13.4736 30.9359 13.9763 31.4386 14.5964 31.4386H21.3333C21.9534 31.4386 22.4561 30.9359 22.4561 30.3158V1.12281C22.4561 0.502698 21.9534 0 21.3333 0Z" fill="#854D15"/>
</g>
<defs>
<clipPath id="clip0_125_19903">
<rect width="22.4561" height="32" fill="white"/>
</clipPath>
</defs>
</svg>
